<svg xmlns="http://www.w3.org/2000/svg" xmlns:xlink="http://www.w3.org/1999/xlink" width="1024" height="384"><rect width="1024" height="384" x="0" y="0" fill="#fff" stroke="#d3d3d3" stroke-width="2"/><g font-family="sans-serif" font-size="20"><g font-size="75%" font-style="italic"><rect width="2" height="20" x="515" y="73" fill="red" fill-opacity=".3"/><text x="510" y="88" text-anchor="end">+0.67%</text></g><text x="5" y="93" text-anchor="start">BenchmarkLexerBasic</text><g font-size="75%" font-style="italic"><rect width="27" height="20" x="517" y="99" fill="green" fill-opacity=".3"/><text x="549" y="114" text-anchor="start">-9.01%</text></g><text x="5" y="119" text-anchor="start">BenchmarkLexerTypeSelector</text><g font-size="75%" font-style="italic"><rect width="26" height="20" x="517" y="125" fill="green" fill-opacity=".3"/><text x="548" y="140" text-anchor="start">-8.67%</text></g><text x="5" y="145" text-anchor="start">BenchmarkLexerIdSelector</text><g font-size="75%" font-style="italic"><rect width="21" height="20" x="517" y="151" fill="green" fill-opacity=".3"/><text x="543" y="166" text-anchor="start">-7.11%</text></g><text x="5" y="171" text-anchor="start">BenchmarkLexerClassSelector</text><g font-size="75%" font-style="italic"><rect width="15" height="20" x="502" y="177" fill="red" fill-opacity=".3"/><text x="497" y="192" text-anchor="end">+5.18%</text></g><text x="5" y="197" text-anchor="start">BenchmarkLexerAttributeSelector</text><g font-size="75%" font-style="italic"><rect width="5" height="20" x="512" y="203" fill="red" fill-opacity=".3"/><text x="507" y="218" text-anchor="end">+1.84%</text></g><text x="5" y="223" text-anchor="start">BenchmarkLexerImportRule</text><g font-size="75%" font-style="italic"><rect width="25" height="20" x="517" y="229" fill="green" fill-opacity=".3"/><text x="547" y="244" text-anchor="start">-8.34%</text></g><text x="5" y="249" text-anchor="start">BenchmarkLexerVariableDeclaration</text><g font-size="75%" font-style="italic"><rect width="10" height="20" x="507" y="255" fill="red" fill-opacity=".3"/><text x="502" y="270" text-anchor="end">+3.40%</text></g><text x="5" y="275" text-anchor="start">BenchmarkParserClassSelector</text><g font-size="75%" font-style="italic"><rect width="8" height="20" x="517" y="281" fill="green" fill-opacity=".3"/><text x="530" y="296" text-anchor="start">-2.73%</text></g><text x="5" y="301" text-anchor="start">BenchmarkParserAttributeSelector</text><g font-size="75%" font-style="italic"><rect width="6" height="20" x="517" y="307" fill="green" fill-opacity=".3"/><text x="528" y="322" text-anchor="start">-2.20%</text></g><text x="5" y="327" text-anchor="start">BenchmarkParserComplexSelector</text><g font-size="75%" font-style="italic"><rect width="0" height="20" x="517" y="333" fill="red" fill-opacity=".3"/><text x="512" y="348" text-anchor="end">+0.19%</text></g><text x="5" y="353" text-anchor="start">BenchmarkParserMediaQueryAllAndMinWidth</text></g></svg>